<svg xmlns="http://www.w3.org/2000/svg" width="50" height="38" viewBox="0 0 50 38"><rect width="50" height="38" rx="4" fill="rgba(255,255,255,0.8)"/><path d="M0,0H48a0,0,0,0,1,0,0V11a2,2,0,0,1-2,2H2a2,2,0,0,1-2-2V0A0,0,0,0,1,0,0Z" transform="translate(1 24)" fill="#c3c4c7" stroke="rgba(0,0,0,0)" stroke-miterlimit="10" stroke-width="1" opacity="0.4"/><rect width="50" height="2" transform="translate(0 24)" fill="#c3c4c7" opacity="0.6"/><rect width="2" height="12" transform="translate(16 26)" fill="#c3c4c7" opacity="0.6"/><rect width="2" height="12" transform="translate(32 26)" fill="#c3c4c7" opacity="0.6"/><g fill="none" stroke="#c3c4c7" stroke-width="2"><rect width="50" height="38" rx="4" stroke="none"/><rect x="1" y="1" width="48" height="36" rx="3" fill="none"/></g><path d="M10.923,1.618a1,1,0,0,0-.541-.541A1.01,1.01,0,0,0,10,1H6A1,1,0,0,0,6,3H7.586L3,7.586V6A1,1,0,0,0,1,6v4l0,.008a.994.994,0,0,0,.288.695l0,0,.006,0A1,1,0,0,0,2,11H6A1,1,0,0,0,6,9H4.414L9,4.414V6a1,1,0,0,0,2,0V2a.991.991,0,0,0-.077-.382" transform="translate(19 7)" fill="#7b7e87" opacity="0.4"/></svg>